PathFileType	4	(X/Y/Z)	Walk10.trc
DataRate	CameraRate	NumFrames	NumMarkers	Units	OrigDataRate	OrigDataStartFrame	OrigNumFrames
200.000000	200.000000	4	59	mm	200.000000	225	536
Frame#	Times		C7		T10		RBack		LPSI		RPSI		RCAR		LElbowM		LLFC		LTH1		LBHD		RWRR		LUA1		CLAV		RUA1		RElbowM		RFA1		LFA1		RTH3		LCAR		LWRU		RTH4		RTH2		RACR1		LACR1		STRN		RTB4		LWRR		RTB3		RMT1		RWRU		RTB1		RToe		RCAL		RFHD		RLFC		RMT5		RBHD		LFHD		RTB2		LElbow		LTB3		LTH4		LTH3		RTH1		RMMAL		RLMAL		LTH2		RElbow		LTB2		LCAL		LMT1		LLMAL		RASI		LASI		LTB4		LMT5		LMMAL		LToe		LTB1
			X1	Y1	Z1	X2	Y2	Z2	X3	Y3	Z3	X4	Y4	Z4	X5	Y5	Z5	X6	Y6	Z6	X7	Y7	Z7	X8	Y8	Z8	X9	Y9	Z9	X10	Y10	Z10	X11	Y11	Z11	X12	Y12	Z12	X13	Y13	Z13	X14	Y14	Z14	X15	Y15	Z15	X16	Y16	Z16	X17	Y17	Z17	X18	Y18	Z18	X19	Y19	Z19	X20	Y20	Z20	X21	Y21	Z21	X22	Y22	Z22	X23	Y23	Z23	X24	Y24	Z24	X25	Y25	Z25	X26	Y26	Z26	X27	Y27	Z27	X28	Y28	Z28	X29	Y29	Z29	X30	Y30	Z30	X31	Y31	Z31	X32	Y32	Z32	X33	Y33	Z33	X34	Y34	Z34	X35	Y35	Z35	X36	Y36	Z36	X37	Y37	Z37	X38	Y38	Z38	X39	Y39	Z39	X40	Y40	Z40	X41	Y41	Z41	X42	Y42	Z42	X43	Y43	Z43	X44	Y44	Z44	X45	Y45	Z45	X46	Y46	Z46	X47	Y47	Z47	X48	Y48	Z48	X49	Y49	Z49	X50	Y50	Z50	X51	Y51	Z51	X52	Y52	Z52	X53	Y53	Z53	X54	Y54	Z54	X55	Y55	Z55	X56	Y56	Z56	X57	Y57	Z57	X58	Y58	Z58	X59	Y59	Z59

225	1.125	-636.67	1321.6	22.503	-659.06	1057.7	3.2951	-653.52	1219.1	149	-675.93	864.01	-51.941	-691.52	885.27	44.029	-370.87	746.39	300.82	-626.73	943.41	-191.83	-381.12	442.59	-123.65	-485.77	713.42	-184.79	-628.36	1451.2	-46.47	-368.92	787.48	251.89	-563.38	1099.5	-236.65	-506.75	1249.8	22.274	-531.28	1107.2	252.51	-570.5	917.43	220.21	-487.53	845.19	295.6	-571.62	866.1	-296.59	-642.28	541.22	163.44	-471.85	719.61	-328.45	-528.8	750.56	-319.93	-616.28	628.94	190.82	-543.75	617.08	163.49	-556.65	1261.9	175.98	-554.89	1265.4	-144.92	-442.23	1145	17.965	-714.31	234.39	53.74	-468.59	758.06	-278.28	-742.38	145.38	45.843	-713.01	46.457	19.136	-428.66	750.46	276.76	-674.78	317.68	54.801	-655.5	28.671	23.569	-865.56	63.286	64.934	-452.66	1494	46.019	-659.63	442.78	143.93	-731.2	35.539	76.688	-627.15	1459.1	76.894	-458.45	1484	-30.633	-736.08	238.59	121.09	-606.19	983.59	-258.74	-243.86	185.24	-36.621	-440.1	634.17	-160.91	-399.72	551.56	-134.95	-589.76	709.74	220.17	-799.8	86.191	7.684	-799.88	76.042	89.041	-387.03	674.59	-129.39	-529.76	965.4	293.32	-307.19	257.07	-107.86	-278.65	27.103	-32.649	-139.75	94.579	-39.055	-252.6	74.079	-76.854	-416.73	870.16	147.96	-627.67	873.49	-142.43	-282.63	268.08	-41.741	-158.94	71.909	-91.151	-231.41	87.542	-1.7959	-91.601	97.062	-56.437	-304.53	357.64	-45.669
226	1.13	-630.63	1321	21.811	-652.59	1057.1	2.8262	-647.36	1218.5	148.32	-669.21	863.67	-52.571	-684.97	884.85	43.366	-365.27	745.6	300.49	-620.53	942.78	-192.22	-374.13	442.41	-123.09	-478.34	713.34	-184.64	-622.38	1450.8	-47.031	-363.07	786.66	251.57	-557.17	1098.8	-237.19	-500.61	1249.4	21.617	-525.23	1106.6	251.81	-564.38	916.91	219.35	-481.71	844.54	294.91	-565.69	865.36	-297.01	-637.1	540.77	163.09	-466.23	718.7	-328.96	-523.11	749.77	-320.41	-610.99	628.46	190.58	-538.33	616.3	163.4	-550.55	1261.5	175.44	-548.79	1264.9	-145.63	-435.94	1144.7	17.339	-711.54	234.56	53.431	-462.85	757.15	-278.78	-740.75	145.86	45.63	-712.65	46.609	18.96	-422.95	749.72	276.25	-670.97	317.31	54.474	-655.48	28.664	23.391	-864.92	65.421	64.852	-446.65	1493.6	45.411	-654.66	442.4	143.64	-730.91	35.844	76.551	-621.12	1458.6	76.336	-452.45	1483.6	-31.241	-733.24	238.98	120.79	-600.03	982.89	-259.16	-239.23	184.1	-35.508	-432.85	634.07	-160.49	-392.61	551.46	-134.4	-584.35	709.22	219.87	-798.91	87.413	7.5823	-799.15	76.683	88.072	-379.75	674.49	-128.96	-523.78	964.82	292.58	-301.59	256.42	-106.97	-275.61	26.97	-32.263	-135.88	92.089	-37.354	-248.69	73.305	-76.043	-406.88	870.04	147.97	-625.63	873.99	-142.32	-277.35	267.19	-40.731	-155.07	69.856	-89.654	-227.88	86.272	-0.79129	-87.353	93.608	-54.332	-298.64	356.85	-44.694
227	1.135	-624.58	1320.6	21.094	-646.08	1056.5	2.3811	-641.15	1218	147.63	-662.48	863.41	-53.167	-678.38	884.49	42.751	-359.77	744.84	300.18	-614.3	942.22	-192.61	-367.16	442.32	-122.55	-470.77	713.43	-184.5	-616.39	1450.4	-47.62	-357.31	785.85	251.26	-550.93	1098.2	-237.73	-494.44	1249.1	20.925	-519.15	1106.2	251.07	-558.27	916.48	218.42	-475.97	843.95	294.18	-559.73	864.69	-297.41	-631.76	540.36	162.75	-460.59	717.86	-329.47	-517.39	749.03	-320.88	-605.57	628.03	190.34	-532.78	615.59	163.29	-544.42	1261.1	174.85	-542.69	1264.4	-146.37	-429.61	1144.5	16.663	-708.67	234.8	53.142	-457.07	756.3	-279.27	-739.02	146.43	45.447	-712.27	46.777	18.789	-417.34	749.03	275.74	-667.03	316.99	54.172	-655.47	28.648	23.205	-864.18	67.722	64.789	-440.63	1493.2	44.783	-649.52	442.05	143.38	-730.59	36.171	76.425	-615.08	1458.2	75.749	-446.45	1483.3	-31.874	-730.28	239.43	120.53	-593.83	982.25	-259.57	-234.89	182.93	-34.433	-425.51	634.12	-160.04	-385.46	551.47	-133.85	-578.82	708.75	219.56	-797.91	88.743	7.5134	-798.32	77.497	87.24	-372.41	674.49	-128.43	-517.83	964.33	291.79	-296.2	255.8	-106.11	-273.02	26.889	-31.928	-132.4	89.425	-35.67	-245.18	72.517	-75.276	-397.4	869.92	147.99	-623.19	874.45	-142.23	-272.27	266.3	-39.754	-151.62	67.637	-88.168	-224.74	84.953	0.16855	-83.469	89.872	-52.227	-292.87	356.07	-43.751
228	1.14	-618.5	1320.2	20.356	-639.54	1056.1	1.9604	-634.91	1217.5	146.92	-655.72	863.27	-53.726	-671.76	884.22	42.187	-354.4	744.1	299.87	-608.02	941.73	-193	-360.24	442.32	-122.04	-463.07	713.68	-184.34	-610.38	1450.2	-48.237	-351.64	785.07	250.96	-544.66	1097.6	-238.29	-488.24	1248.9	20.199	-513.05	1105.8	250.31	-552.17	916.16	217.43	-470.3	843.42	293.42	-553.73	864.08	-297.81	-626.26	539.96	162.4	-454.91	717.07	-329.96	-511.64	748.36	-321.32	-600	627.63	190.09	-527.1	614.94	163.15	-538.24	1260.9	174.22	-536.59	1263.9	-147.14	-423.25	1144.4	15.941	-705.67	235.12	52.878	-451.26	755.52	-279.75	-737.17	147.1	45.295	-711.86	46.961	18.622	-411.84	748.38	275.22	-662.96	316.73	53.9	-655.49	28.622	23.011	-863.32	70.198	64.742	-434.6	1492.9	44.137	-644.2	441.73	143.15	-730.24	36.524	76.31	-609.03	1457.9	75.135	-440.43	1483.1	-32.531	-727.17	239.97	120.32	-587.58	981.67	-259.98	-230.81	181.75	-33.408	-418.12	634.3	-159.57	-378.3	551.59	-133.29	-573.17	708.32	219.25	-796.81	90.187	7.4788	-797.39	78.51	86.576	-365.05	674.6	-127.8	-511.91	963.92	290.97	-291.01	255.21	-105.3	-270.85	26.867	-31.651	-129.26	86.633	-34.019	-242.02	71.733	-74.565	-388.31	869.8	148.01	-620.33	874.89	-142.14	-267.38	265.43	-38.82	-148.54	65.294	-86.709	-221.93	83.612	1.0722	-79.917	85.914	-50.143	-287.21	355.32	-42.849
